<svg width="28" height="26" viewBox="0 0 28 26" fill="none" xmlns="http://www.w3.org/2000/svg">
<path d="M0.965883 10.2428C-0.0102116 10.2428 -0.257324 10.9842 0.273968 11.7131L3.28874 15.8893C3.70883 16.4701 4.35133 16.4577 4.75906 15.8893L7.77383 11.7008C8.29277 10.9965 8.05801 10.2428 7.09427 10.2428H5.30271C6.42707 5.80715 10.4179 2.55762 15.2243 2.55762C20.8955 2.55762 25.4424 7.10449 25.4424 12.7757C25.4424 18.447 20.8955 23.0185 15.2243 23.0062C11.9253 22.9938 9.03411 21.4494 7.18076 19.0153C6.67418 18.4346 5.93285 18.2493 5.32742 18.6941C4.75906 19.1018 4.64786 19.9049 5.20386 20.5845C7.4773 23.5498 11.2334 25.5514 15.2243 25.5514C22.2176 25.5514 28 19.769 28 12.7757C28 5.78243 22.2176 0 15.2243 0C9.08353 0 3.88181 4.43567 2.69567 10.2428H0.965883ZM14.7671 5.62181C14.1617 5.62181 13.6798 6.10368 13.6798 6.69675V13.3935C13.6798 13.69 13.7787 13.9619 13.9887 14.246L16.9294 18.1257C17.3742 18.7064 18.0166 18.8053 18.5479 18.4222C19.0545 18.0639 19.1039 17.4091 18.7086 16.8778L15.8421 13.0228V6.69675C15.8421 6.10368 15.3602 5.62181 14.7671 5.62181Z" fill="#1C1C1E"/>
</svg>
